# xmcd CD database file
#
# Track frame offsets:
#	150
#	27765
#	59105
#	94005
#	133530
#	160412
#	187462
#	212527
#	234892
#
# Disc length: 3406 seconds
#
# Revision: 1
# Processed by: cddbd v1.5.1PL2 Copyright (c) Steve Scherf et al.
# Submitted via: CDex 1.51
#
DISCID=7c0d4c09
DTITLE=VINIE CUTRO - NEW YORK CITY SOUNDSCAPE
DYEAR=2001
DGENRE=Jazz
TTITLE0=BEYOND ALL LIMITS
TTITLE1=ABERRATION
TTITLE2=ON THE ROAD
TTITLE3=IN A SENTIMENTAL MOOD
TTITLE4=INSIDE OUT
TTITLE5=INCEPTION
TTITLE6=REAL DEAL
TTITLE7=MOODY'S MOOD FOR LOVE
TTITLE8=MAY I BE FRANK
EXTD=YEAR: 2001
EXTT0=
EXTT1=
EXTT2=
EXTT3=
EXTT4=
EXTT5=
EXTT6=
EXTT7=
EXTT8=
PLAYORDER=
